<?xml version="1.0" standalone="no"?>
<!DOCTYPE svg PUBLIC "-//W3C//DTD SVG 20010904//EN"
 "http://www.w3.org/TR/2001/REC-SVG-20010904/DTD/svg10.dtd">
<svg version="1.0" xmlns="http://www.w3.org/2000/svg"
 width="340.000000pt" height="340.000000pt" viewBox="0 0 340.000000 340.000000"
 preserveAspectRatio="xMidYMid meet">
<metadata>
Created by potrace 1.14, written by Peter Selinger 2001-2017
</metadata>
<g transform="translate(0.000000,340.000000) scale(0.100000,-0.100000)"
fill="#000000" stroke="none">
<path d="M1900 3270 c0 -5 -22 -10 -50 -10 -27 0 -50 -4 -50 -10 0 -5 -13 -10
-30 -10 -16 0 -30 -4 -30 -10 0 -5 -13 -10 -30 -10 -16 0 -30 -4 -30 -10 0 -5
-9 -10 -20 -10 -11 0 -20 -4 -20 -10 0 -5 -9 -10 -20 -10 -11 0 -20 -4 -20
-10 0 -5 -9 -10 -20 -10 -11 0 -20 -4 -20 -10 0 -5 -9 -10 -20 -10 -11 0 -20
-4 -20 -10 0 -5 -9 -10 -20 -10 -11 0 -20 -4 -20 -10 0 -5 -9 -10 -20 -10 -11
0 -20 -4 -20 -10 0 -5 -9 -10 -20 -10 -11 0 -20 -4 -20 -10 0 -5 -8 -10 -18
-10 -10 0 -24 -9 -32 -20 -8 -11 -21 -20 -30 -20 -9 0 -22 -9 -30 -20 -8 -11
-20 -20 -28 -20 -7 0 -44 -31 -82 -70 -38 -38 -75 -70 -82 -70 -8 0 -20 -9
-28 -20 -8 -11 -21 -20 -30 -20 -9 0 -22 -9 -30 -20 -8 -11 -21 -20 -30 -20
-9 0 -22 -9 -30 -20 -8 -11 -21 -20 -30 -20 -9 0 -22 -9 -30 -20 -8 -11 -22
-20 -32 -20 -10 0 -18 -4 -18 -10 0 -20 -33 -9 -60 20 -15 17 -33 30 -39 30
-17 0 -121 107 -121 125 0 8 9 15 20 15 11 0 20 5 20 10 0 6 -9 10 -20 10 -11
0 -20 5 -20 10 0 6 -9 10 -20 10 -11 0 -20 5 -20 10 0 6 -9 10 -20 10 -11 0
-20 5 -20 10 0 6 -9 10 -20 10 -11 0 -20 5 -20 10 0 6 -9 10 -20 10 -11 0 -20
5 -20 10 0 6 -9 10 -20 10 -11 0 -20 5 -20 10 0 6 -9 10 -20 10 -11 0 -20 -4
-20 -10 0 -5 5 -10 10 -10 6 0 10 -9 10 -20 0 -11 5 -20 10 -20 6 0 10 -9 10
-20 0 -11 5 -20 10 -20 6 0 10 -9 10 -20 0 -11 5 -20 10 -20 6 0 10 -9 10 -20
0 -11 5 -20 10 -20 6 0 10 -9 10 -20 0 -11 5 -20 10 -20 6 0 10 -9 10 -20 0
-11 3 -20 6 -20 11 0 34 29 34 44 0 9 2 16 6 16 3 0 32 -27 64 -60 32 -33 64
-60 70 -60 16 0 60 -47 60 -65 0 -8 -8 -15 -18 -15 -10 0 -24 -9 -32 -20 -8
-11 -21 -20 -30 -20 -9 0 -22 -9 -30 -20 -8 -11 -20 -20 -27 -20 -7 0 -47 -34
-88 -75 l-75 -75 0 -55 c0 -30 5 -55 10 -55 6 0 10 -37 10 -90 0 -53 4 -90 10
-90 6 0 10 -11 10 -25 0 -33 42 -75 75 -75 14 0 25 5 25 10 0 6 7 10 16 10 8
0 33 18 54 40 21 22 41 40 44 40 3 0 6 -13 6 -30 0 -16 -4 -30 -10 -30 -6 0
-10 -53 -10 -140 0 -87 4 -140 10 -140 6 0 10 -22 10 -50 0 -27 5 -50 10 -50
6 0 10 -22 10 -50 0 -27 5 -50 10 -50 6 0 10 -13 10 -30 0 -16 5 -30 10 -30 6
0 10 -40 10 -100 0 -60 4 -100 10 -100 6 0 10 -18 10 -40 0 -22 5 -40 10 -40
6 0 10 -18 10 -40 0 -22 5 -40 10 -40 6 0 10 -13 10 -30 0 -16 5 -30 10 -30 6
0 10 -9 10 -20 0 -11 5 -20 10 -20 6 0 10 -9 10 -20 0 -11 5 -20 10 -20 6 0
10 -7 10 -15 0 -9 16 -31 35 -50 49 -49 84 -48 136 6 l39 41 39 -41 c22 -23
45 -41 51 -41 6 0 29 -18 50 -40 21 -22 44 -40 50 -40 7 0 25 -14 40 -30 15
-17 35 -30 44 -30 9 0 16 -4 16 -10 0 -5 8 -10 18 -10 10 0 24 -9 32 -20 8
-11 22 -20 32 -20 10 0 18 -4 18 -10 0 -5 9 -10 20 -10 11 0 20 -4 20 -10 0
-5 9 -10 20 -10 11 0 20 -4 20 -10 0 -5 9 -10 20 -10 11 0 20 -4 20 -10 0 -5
9 -10 20 -10 11 0 20 -4 20 -10 0 -5 14 -10 30 -10 28 0 30 -2 30 -40 0 -22 5
-40 10 -40 6 0 10 -18 10 -40 0 -22 5 -40 10 -40 6 0 10 -9 10 -20 0 -11 5
-20 10 -20 6 0 10 -13 10 -30 0 -16 5 -30 10 -30 6 0 10 -9 10 -20 0 -11 5
-20 10 -20 6 0 10 -8 10 -18 0 -10 9 -24 20 -32 11 -8 20 -20 20 -27 0 -19
106 -123 125 -123 8 0 15 -4 15 -10 0 -5 14 -10 30 -10 35 0 38 10 10 30 -11
8 -20 22 -20 32 0 10 -4 18 -10 18 -6 0 -10 37 -10 90 0 53 4 90 10 90 6 0 10
9 10 20 0 11 5 20 10 20 6 0 10 9 10 20 0 11 5 20 10 20 6 0 10 18 10 40 0 22
-4 40 -10 40 -5 0 -10 14 -10 30 0 17 -4 30 -10 30 -5 0 -10 9 -10 20 0 18 7
20 78 20 66 0 80 3 92 20 8 11 22 20 32 20 10 0 18 5 18 10 0 6 9 10 20 10 11
0 20 5 20 10 0 6 47 10 120 10 66 0 120 2 120 5 0 12 -50 55 -62 55 -8 0 -20
9 -28 20 -8 11 -22 20 -32 20 -10 0 -18 5 -18 10 0 6 -9 10 -20 10 -11 0 -20
5 -20 10 0 6 -13 10 -30 10 -16 0 -30 5 -30 10 0 6 -22 10 -50 10 -27 0 -50 5
-50 10 0 6 -37 10 -90 10 -53 0 -90 -4 -90 -10 0 -5 -9 -10 -19 -10 -11 0 -21
-6 -23 -12 -6 -16 -38 14 -38 34 0 8 -9 20 -20 28 -11 8 -20 21 -20 30 0 9 -9
22 -20 30 -11 8 -20 21 -20 30 0 9 -9 22 -20 30 -11 8 -20 21 -20 30 0 9 -9
22 -20 30 -11 8 -20 22 -20 32 0 10 -4 18 -10 18 -5 0 -10 9 -10 20 0 11 -4
20 -10 20 -5 0 -10 9 -10 20 0 11 -4 20 -10 20 -22 0 -9 53 20 80 17 15 30 35
30 44 0 9 5 16 10 16 6 0 10 9 10 20 0 11 5 20 10 20 6 0 10 9 10 20 0 11 -4
20 -10 20 -5 0 -10 9 -10 20 0 11 -4 20 -10 20 -5 0 -10 9 -10 20 0 11 -4 20
-10 20 -5 0 -10 8 -10 18 0 10 -9 24 -20 32 -11 8 -20 22 -20 32 0 10 -4 18
-10 18 -5 0 -10 9 -10 20 0 11 -4 20 -10 20 -5 0 -10 9 -10 20 0 11 -4 20 -10
20 -5 0 -10 9 -10 20 0 11 -4 20 -10 20 -5 0 -10 9 -10 20 0 11 -4 20 -10 20
-5 0 -10 14 -10 30 0 17 -4 30 -10 30 -6 0 -10 27 -10 60 0 33 2 60 6 60 3 0
32 -27 64 -60 32 -33 64 -60 70 -60 16 0 120 -108 120 -125 0 -8 5 -15 10 -15
6 0 10 -13 10 -28 0 -16 8 -34 20 -42 12 -8 20 -26 20 -42 0 -15 5 -28 10 -28
6 0 10 -9 10 -20 0 -11 5 -20 10 -20 6 0 10 -9 10 -20 0 -11 5 -20 10 -20 6 0
10 -8 10 -18 0 -10 9 -24 20 -32 11 -8 20 -22 20 -32 0 -10 5 -18 10 -18 6 0
10 18 10 40 0 22 5 40 10 40 6 0 10 -9 10 -20 0 -11 5 -20 10 -20 6 0 10 -9
10 -20 0 -11 5 -20 10 -20 6 0 10 -7 10 -15 0 -19 44 -65 62 -65 8 0 20 -9 28
-20 19 -26 50 -26 50 0 0 27 7 25 40 -10 17 -18 38 -30 54 -30 22 0 26 5 26
28 0 16 8 34 20 42 11 8 20 21 20 30 0 9 -9 22 -20 30 -11 8 -20 18 -20 22 0
4 9 8 20 8 11 0 20 -4 20 -10 0 -5 9 -10 20 -10 17 0 20 7 20 40 0 22 -4 40
-10 40 -5 0 -10 9 -10 20 0 11 -4 20 -10 20 -5 0 -10 7 -10 16 0 23 -25 44
-54 44 -14 0 -26 5 -26 10 0 6 -9 10 -20 10 -11 0 -20 5 -20 10 0 6 -9 10 -20
10 -11 0 -20 5 -20 10 0 6 9 10 20 10 11 0 20 -4 20 -10 0 -5 9 -10 20 -10 26
0 25 6 -5 35 -13 14 -36 25 -50 25 -14 0 -25 5 -25 10 0 6 -13 10 -30 10 -16
0 -30 5 -30 10 0 6 -9 10 -20 10 -11 0 -20 5 -20 10 0 6 -9 10 -20 10 -11 0
-20 5 -20 10 0 6 -9 10 -20 10 -11 0 -20 5 -20 10 0 6 -9 10 -20 10 -11 0 -20
5 -20 10 0 6 -13 10 -30 10 -16 0 -30 5 -30 10 0 6 -12 10 -26 10 -17 0 -41
16 -74 50 -27 28 -54 50 -60 50 -6 0 -38 27 -70 60 -32 33 -66 60 -74 60 -9 0
-16 5 -16 10 0 6 5 10 10 10 6 0 10 14 10 30 0 17 5 30 10 30 6 0 10 14 10 30
0 17 5 30 10 30 6 0 10 7 10 16 0 15 23 44 34 44 3 0 6 -7 6 -15 0 -18 44 -65
60 -65 16 0 200 188 200 205 0 8 5 15 10 15 6 0 10 48 10 125 l0 125 55 55
c30 30 61 55 70 55 8 0 15 5 15 10 0 6 7 10 16 10 9 0 29 14 44 30 15 17 34
30 42 30 7 0 20 9 28 20 8 11 21 20 28 20 8 0 27 14 42 30 15 17 33 30 39 30
17 0 121 107 121 125 0 8 5 15 10 15 6 0 10 9 10 20 0 11 5 20 10 20 6 0 10
16 10 35 0 27 -8 44 -35 70 -19 19 -41 35 -50 35 -8 0 -15 5 -15 10 0 6 -9 10
-20 10 -11 0 -20 5 -20 10 0 6 -9 10 -20 10 -11 0 -20 5 -20 10 0 6 -22 10
-50 10 -27 0 -50 5 -50 10 0 6 -22 10 -50 10 -27 0 -50 5 -50 10 0 6 -43 10
-110 10 -67 0 -110 -4 -110 -10z"/>
</g>
</svg>
